<?xml version="1.0" encoding="UTF-8"?>
<svg version="1.1" xmlns="http://www.w3.org/2000/svg" width="512" height="512">
<path d="M0 0 C1.14764832 -0.01007584 1.14764832 -0.01007584 2.31848145 -0.02035522 C4.83510935 -0.03927297 7.35146957 -0.04325652 9.86816406 -0.04541016 C11.6292532 -0.0518434 13.39034128 -0.05857215 15.15142822 -0.06558228 C18.83990962 -0.07754021 22.52829747 -0.08126473 26.21679688 -0.08007812 C30.92185908 -0.07987525 35.62631514 -0.10715128 40.33123398 -0.14162254 C43.96887923 -0.16396434 47.60638041 -0.16791341 51.24408722 -0.16685867 C52.97748143 -0.16920469 54.71088021 -0.17797133 56.44420624 -0.19352341 C68.20300573 -0.28913458 78.56887265 0.1502988 87.60253906 8.58740234 C93.56726551 15.22163891 96.4083275 22.26768336 96.32910156 31.22021484 C96.31943359 33.15380859 96.31943359 33.15380859 96.30957031 35.12646484 C96.29286369 36.47282176 96.27593385 37.81917593 96.25878906 39.16552734 C96.2487457 40.53531252 96.23962223 41.90510476 96.23144531 43.27490234 C96.20793318 46.6136249 96.17506836 49.95198495 96.13378906 53.29052734 C97.12413651 53.2816449 98.11448395 53.27276245 99.13484192 53.26361084 C108.5055343 53.18223381 117.87615421 53.12242291 127.24712086 53.08327866 C132.06390518 53.06247704 136.88040237 53.03429639 141.69702148 52.98876953 C146.35250832 52.9450452 151.00772038 52.9213345 155.66339684 52.91101837 C157.4322714 52.90367442 159.20113232 52.88933435 160.96988869 52.86760712 C174.16319672 52.71210846 185.16464092 53.40876192 195.18847656 63.00146484 C200.72513054 69.51648337 203.25182289 76.67660659 203.27080345 85.1215744 C203.27841527 86.91985223 203.27841527 86.91985223 203.28618085 88.7544589 C203.28667861 90.07310832 203.28717637 91.39175773 203.28768921 92.75036621 C203.29170489 94.16419867 203.29614329 95.57802998 203.30096877 96.99185991 C203.31292852 100.88179573 203.31858134 104.77171914 203.32314992 108.66166973 C203.32910835 112.85546875 203.34071767 117.04925296 203.35144043 121.24304199 C203.37595999 131.37425552 203.39059149 141.50547395 203.4035005 151.63670802 C203.40721293 154.49877056 203.41118613 157.36083261 203.41525316 160.22289467 C203.44049159 177.99972424 203.46254256 195.7765546 203.47498131 213.55339813 C203.47791096 217.67085269 203.48087263 221.78830722 203.48388672 225.90576172 C203.48463277 226.92912347 203.48537882 227.95248522 203.48614748 229.00685793 C203.49879672 245.57872321 203.53201417 262.15048109 203.57368855 278.72229618 C203.61613415 295.74046823 203.63967943 312.75858533 203.64490187 329.77681017 C203.64831314 339.33015684 203.66003474 348.88333573 203.69300461 358.43663025 C203.72104244 366.57412998 203.73198811 374.71142751 203.72080915 382.84897178 C203.71563191 386.99839383 203.71844791 391.1473927 203.74327469 395.29675293 C203.76585126 399.10192801 203.76496311 402.906378 203.74607082 406.71156651 C203.74197024 408.72662905 203.76235427 410.74169657 203.7838577 412.75664854 C203.69383204 423.14315649 201.48121504 431.99758023 194.32128906 439.79052734 C188.58279336 445.01820998 182.03187272 448.40895406 174.19827843 448.42474842 C172.66146669 448.43143519 172.66146669 448.43143519 171.09360826 448.43825704 C169.40001646 448.43798049 169.40001646 448.43798049 167.67221069 448.43769836 C166.47543312 448.44137505 165.27865554 448.44505174 164.04561198 448.44883984 C160.71768904 448.4579689 157.38981542 448.46257686 154.06188464 448.46522915 C150.47481186 448.46913184 146.88775336 448.47871026 143.3006897 448.48744202 C134.63441671 448.50720841 125.96814254 448.51727328 117.30185264 448.52616981 C113.220599 448.5305528 109.13934665 448.53591961 105.05809402 448.54115868 C91.49046027 448.55817184 77.92282733 448.57266563 64.35518456 448.57990742 C60.83395766 448.58181731 57.31273077 448.58373764 53.79150391 448.58569336 C52.47872874 448.58641897 52.47872874 448.58641897 51.13943286 448.58715924 C36.96457073 448.59545811 22.78979302 448.6207922 8.61496775 448.65327404 C-5.93860209 448.68635179 -20.49212904 448.70435686 -35.04573667 448.70755166 C-43.21678932 448.70971619 -51.38771889 448.71845644 -59.55873489 448.74401283 C-66.51824983 448.7657297 -73.47761178 448.77376547 -80.43715675 448.76404605 C-83.98667924 448.75950403 -87.53588617 448.76138134 -91.0853653 448.7808075 C-94.93795097 448.80170994 -98.79010303 448.79144501 -102.64273071 448.77827454 C-103.75840758 448.78924378 -104.87408445 448.80021303 -106.0235697 448.81151468 C-115.85348698 448.73042405 -122.88388709 445.90804774 -130.07714844 439.21630859 C-135.93701164 432.90863925 -139.11173797 425.86266541 -139.12347984 417.19218063 C-139.12992874 415.98462986 -139.13637763 414.77707908 -139.14302194 413.53293586 C-139.13992474 412.21485694 -139.13682753 410.89677803 -139.13363647 409.53875732 C-139.13737442 408.11764734 -139.14197652 406.69653941 -139.14736712 405.27543473 C-139.15959483 401.37473037 -139.15933692 397.47411179 -139.15697837 393.57339263 C-139.15657014 389.36466511 -139.16760995 385.15596507 -139.17709351 380.94725037 C-139.19370347 372.70297487 -139.19920306 364.45872798 -139.20031826 356.21443716 C-139.20126878 349.51223955 -139.20537929 342.81005137 -139.21171951 336.10785675 C-139.22933228 317.10251018 -139.23855838 298.0971862 -139.23705857 279.09183142 C-139.23697865 278.0673376 -139.23689874 277.04284378 -139.23681641 275.98730469 C-139.23673464 274.9615587 -139.23665288 273.93581272 -139.23656864 272.87898353 C-139.23575584 256.2574089 -139.25489199 239.63592491 -139.28309314 223.01437649 C-139.31182678 205.94416447 -139.32563315 188.87399664 -139.32390559 171.80375981 C-139.32324183 162.22147752 -139.32872788 152.63929023 -139.35026169 143.05702972 C-139.36847983 134.89793896 -139.37281565 126.73898627 -139.35924284 118.57988396 C-139.35271625 114.41860918 -139.35258468 110.25759924 -139.36994934 106.09634972 C-139.38569909 102.28279907 -139.38279739 98.46972284 -139.36538108 94.65618363 C-139.36086907 92.63180569 -139.3759536 90.60741292 -139.39186037 88.58309245 C-139.30823869 77.50957616 -136.82456765 69.38551151 -129.15527344 61.27099609 C-121.9085478 55.00121811 -114.30809054 53.1318497 -104.9765625 53.17700195 C-104.18593918 53.17685593 -103.39531586 53.1767099 -102.58073425 53.17655945 C-99.97274004 53.17725499 -97.36481764 53.18503059 -94.75683594 53.19287109 C-92.94651326 53.19473655 -91.13619007 53.19615985 -89.3258667 53.19715881 C-84.56490684 53.20097395 -79.80397757 53.21079569 -75.04302979 53.22186279 C-70.18331313 53.23209847 -65.32359152 53.23666106 -60.46386719 53.24169922 C-50.93130168 53.25241885 -41.39875885 53.26948324 -31.86621094 53.29052734 C-31.89763184 52.05133545 -31.89763184 52.05133545 -31.9296875 50.78710938 C-31.99851368 47.67468514 -32.04832336 44.56265314 -32.0859375 41.44970703 C-32.11556571 39.45888256 -32.1664342 37.46841026 -32.21777344 35.47802734 C-32.32271346 25.08896492 -30.83590955 16.60214909 -23.56933594 8.82177734 C-16.62900593 2.58184761 -9.30648445 -0.01186749 0 0 Z " fill="#F4D8C3" transform="translate(223.8662109375,31.70947265625)"/>
<path d="M0 0 C23.09616682 19.08950441 40.9211593 45.38004184 44.34838867 75.78100586 C45.82220637 92.71612781 45.91678637 109.76932084 40.74682617 126.07397461 C40.53251953 126.75459961 40.31821289 127.43522461 40.09741211 128.13647461 C30.76370458 156.83049253 11.18971046 182.37790924 -15.79614258 196.51147461 C-34.14314304 205.71489249 -52.02311481 210.44092773 -72.62817383 210.38647461 C-74.44575195 210.41064453 -74.44575195 210.41064453 -76.30004883 210.43530273 C-106.92270137 210.45162611 -135.11930022 196.28564568 -156.62817383 175.19897461 C-180.09956751 151.25553055 -189.64570101 121.07247414 -189.5559082 88.04443359 C-189.42542472 79.35097123 -188.68587395 71.45986773 -186.25317383 63.07397461 C-185.93606445 61.89834961 -185.61895508 60.72272461 -185.29223633 59.51147461 C-176.82699391 31.17392551 -156.8860868 5.15257164 -130.88061523 -9.23901367 C-89.35658074 -31.21576625 -37.63546223 -29.77151097 0 0 Z " fill="#FEC847" transform="translate(328.253173828125,194.926025390625)"/>
<path d="M0 0 C1.14764832 -0.01007584 1.14764832 -0.01007584 2.31848145 -0.02035522 C4.83510935 -0.03927297 7.35146957 -0.04325652 9.86816406 -0.04541016 C11.6292532 -0.0518434 13.39034128 -0.05857215 15.15142822 -0.06558228 C18.83990962 -0.07754021 22.52829747 -0.08126473 26.21679688 -0.08007812 C30.92185908 -0.07987525 35.62631514 -0.10715128 40.33123398 -0.14162254 C43.96887923 -0.16396434 47.60638041 -0.16791341 51.24408722 -0.16685867 C52.97748143 -0.16920469 54.71088021 -0.17797133 56.44420624 -0.19352341 C68.20300573 -0.28913458 78.56887265 0.1502988 87.60253906 8.58740234 C93.76962216 15.44670906 96.43130363 22.73529519 96.44018555 31.94140625 C96.44850906 32.6837854 96.45683258 33.42616455 96.46540833 34.19104004 C96.4894012 36.6331109 96.49826913 39.07491379 96.50488281 41.51708984 C96.51386041 43.22854689 96.52298244 44.94000319 96.53224182 46.65145874 C96.54870754 50.23738505 96.55642696 53.8232183 96.55932617 57.40917969 C96.56469388 61.97517131 96.60231697 66.54027149 96.64807034 71.10601234 C96.67801274 74.64251792 96.6850535 78.17881379 96.68605232 81.71543503 C96.69022407 83.39695677 96.70253406 85.07848092 96.72356987 86.75987625 C96.86277228 98.85310595 95.83669135 110.44603741 87.07128906 119.75927734 C79.10705707 126.05358973 70.77489678 128.39183563 60.82421875 128.4675293 C60.10642746 128.47410049 59.38863617 128.48067169 58.64909363 128.48744202 C56.28461585 128.50707668 53.9202013 128.51881568 51.55566406 128.52880859 C50.33822887 128.53492188 50.33822887 128.53492188 49.09619904 128.54115868 C44.79997517 128.56197774 40.50378284 128.57629728 36.20751953 128.58569336 C31.78820796 128.59674798 27.36940121 128.63114864 22.95026779 128.67086506 C19.53571689 128.69710497 16.12128499 128.70539171 12.70664215 128.70897484 C11.07846925 128.7138219 9.45030099 128.7253818 7.82222748 128.74401283 C-8.38697532 128.91797474 -8.38697532 128.91797474 -15.86621094 124.29052734 C-17.06310547 123.62150391 -17.06310547 123.62150391 -18.28417969 122.93896484 C-26.15307971 117.27613613 -30.03090193 109.70397437 -31.86621094 100.29052734 C-32.04808531 97.71977466 -32.14165077 95.1415872 -32.15673828 92.56445312 C-32.16345551 91.83807648 -32.17017273 91.11169983 -32.17709351 90.36331177 C-32.19592591 87.98741618 -32.19998992 85.61180519 -32.20214844 83.23583984 C-32.20858586 81.56729013 -32.21531491 79.89874152 -32.22232056 78.23019409 C-32.23425588 74.74197779 -32.23800518 71.25386026 -32.23681641 67.765625 C-32.23661325 63.31843725 -32.26392805 58.87188878 -32.29836082 54.42485237 C-32.32070756 50.98108061 -32.3246516 47.53746093 -32.32359695 44.09362411 C-32.32594073 42.45512563 -32.33469453 40.81662216 -32.35026169 39.17819595 C-32.44916023 27.69627246 -31.79160611 17.62542015 -23.56933594 8.82177734 C-16.62900593 2.58184761 -9.30648445 -0.01186749 0 0 Z " fill="#FB878F" transform="translate(223.8662109375,31.70947265625)"/>
<path d="M0 0 C3.36337088 2.01802253 4.56537386 3.42587329 5.609375 7.20703125 C6.02189964 11.05928337 5.74988077 13.92820966 3.4947052 17.15148926 C2.81042953 17.87557983 2.12615387 18.59967041 1.42114258 19.34570312 C0.60134918 20.21678711 -0.21844421 21.08787109 -1.06307983 21.98535156 C-2.04001226 22.99221869 -3.01913692 23.99696162 -4 25 C-4.54564732 25.56017822 -5.09129463 26.12035645 -5.65347672 26.69750977 C-10.27260122 31.42622697 -14.94027069 36.10587553 -19.61328125 40.78125 C-21.11548397 42.28667175 -22.61761385 43.79216617 -24.11967468 45.29772949 C-27.24867171 48.43267761 -30.37969113 51.56558961 -33.51196289 54.69726562 C-37.52633538 58.71153581 -41.53374331 62.73268347 -45.53948689 66.75556183 C-48.63040015 69.85757498 -51.72582875 72.95505144 -54.82256126 76.05125427 C-56.30295602 77.53282881 -57.78173014 79.01602455 -59.25884438 80.50086975 C-61.31670087 82.56850081 -63.38076845 84.62972735 -65.4465332 86.68945312 C-66.05386292 87.30240234 -66.66119263 87.91535156 -67.28692627 88.546875 C-67.85158096 89.10733521 -68.41623566 89.66779541 -68.9980011 90.24523926 C-69.48407994 90.73186287 -69.97015879 91.21848648 -70.47096729 91.71985626 C-73.93483544 94.61989175 -77.34105251 95.65545678 -81.90112305 95.47949219 C-90.32184668 93.55576284 -98.94520347 81.20442271 -104.9387207 75.19165039 C-106.95344771 73.17150943 -108.97353385 71.15683617 -110.99414062 69.14257812 C-112.2763629 67.85969599 -113.55827545 66.57650419 -114.83984375 65.29296875 C-115.74596657 64.38988228 -115.74596657 64.38988228 -116.6703949 63.46855164 C-120.33042486 59.78772321 -122.14857646 57.86911569 -122.375 52.6875 C-122.35031361 48.85493835 -122.13918768 48.17581602 -119.625 45 C-115.49078109 41.85011892 -113.3704939 41.75952293 -108.32888794 42.39987183 C-104.44845339 43.39981608 -102.31353462 45.68562529 -99.65234375 48.56640625 C-99.11017715 49.11989243 -98.56801056 49.6733786 -98.00941467 50.24363708 C-96.29890621 51.99857554 -94.61848057 53.77930579 -92.9375 55.5625 C-91.77597441 56.76419549 -90.61257841 57.96408606 -89.44726562 59.16210938 C-86.6094591 62.08764986 -83.798279 65.03664952 -81 68 C-76.72010853 66.34757178 -73.87093074 63.12978672 -70.71850586 59.9296875 C-70.09851212 59.30837952 -69.47851837 58.68707153 -68.83973694 58.04693604 C-66.79346941 55.99418267 -64.75426754 53.93455082 -62.71484375 51.875 C-61.29336128 50.44724645 -59.87136198 49.02000728 -58.4488678 47.59326172 C-54.70573006 43.83682165 -50.96819859 40.07485676 -47.23223877 36.3112793 C-41.24990073 30.28582043 -35.26084284 24.26705933 -29.26852608 18.25152588 C-27.17498645 16.14775337 -25.08488806 14.04060572 -22.99510193 11.93310547 C-21.7142167 10.64539287 -20.43322186 9.35778929 -19.15209961 8.0703125 C-18.57072235 7.48219788 -17.98934509 6.89408325 -17.39035034 6.28814697 C-11.67984304 0.56151753 -8.0242856 -1.18830981 0 0 Z " fill="#05A84E" transform="translate(325,246)"/>
<path d="M0 0 C7.33590199 4.77843157 11.62856456 11.65837182 14 20 C15.32339593 30.72647224 12.87791124 40.16037827 6.4375 48.875 C1.39325043 54.26257545 -7.47221888 58.61745894 -14.8203125 59.23828125 C-22.21377368 59.40432825 -27.64458785 58.86641044 -34 55 C-35.04800781 54.38125 -35.04800781 54.38125 -36.1171875 53.75 C-43.49878749 48.8475034 -47.64893302 41.43178111 -50 33 C-50.88055277 24.83952844 -50.30216839 18.0496591 -46 11 C-45.57589844 10.30132812 -45.15179688 9.60265625 -44.71484375 8.8828125 C-34.17648681 -6.6752075 -15.80622083 -8.79670733 0 0 Z " fill="#06A8BB" transform="translate(274,69)"/>
<path d="M0 0 C3.125 1.875 3.125 1.875 5 5 C5.98876625 10.02622846 5.7769173 13.70513784 3.125 18.125 C-1.29486216 20.7769173 -4.97377154 20.98876625 -10 20 C-13.125 18.125 -13.125 18.125 -15 15 C-15.98876625 9.97377154 -15.7769173 6.29486216 -13.125 1.875 C-8.70513784 -0.7769173 -5.02622846 -0.98876625 0 0 Z " fill="#F8878F" transform="translate(261,86)"/>
</svg>
